<?xml version="1.0" encoding="utf-8"?>
<!-- Generator: Adobe Illustrator 23.0.0, SVG Export Plug-In . SVG Version: 6.00 Build 0)  -->
<svg version="1.1" id="Layer_1" xmlns="http://www.w3.org/2000/svg" xmlns:xlink="http://www.w3.org/1999/xlink" x="0px" y="0px"
	 viewBox="0 0 122.46 81.88" style="enable-background:new 0 0 122.46 81.88;" xml:space="preserve">
<style type="text/css">
	.st0{fill-rule:evenodd;clip-rule:evenodd;fill:#A21834;}
	.st1{clip-path:url(#SVGID_5_);}
	.st2{clip-path:url(#SVGID_10_);}
	.st3{clip-path:url(#SVGID_11_);}
	.st4{clip-path:url(#SVGID_12_);}
	
		.st5{clip-path:url(#SVGID_16_);fill:none;stroke:#2B2422;stroke-width:0.387;stroke-linecap:round;stroke-linejoin:round;stroke-miterlimit:2.613;}
	.st6{fill-rule:evenodd;clip-rule:evenodd;fill:#FFFFFF;}
	.st7{fill:none;stroke:#2B2422;stroke-width:0.439;stroke-linecap:round;stroke-linejoin:round;stroke-miterlimit:2.613;}
	.st8{fill:none;stroke:#2B2422;stroke-width:0.219;stroke-linecap:round;stroke-linejoin:round;stroke-miterlimit:2.613;}
	.st9{fill-rule:evenodd;clip-rule:evenodd;fill:#00859E;}
	.st10{clip-path:url(#SVGID_18_);fill:none;stroke:#2B2422;stroke-width:0.219;stroke-miterlimit:2.613;}
	.st11{clip-path:url(#SVGID_20_);fill:none;stroke:#2B2422;stroke-width:0.219;stroke-miterlimit:2.613;}
	.st12{fill:#12100B;}
</style>
<path class="st0" d="M55.92,22.07c15.69,0,28.48,11.91,28.48,26.51c0,14.61-12.79,26.53-28.48,26.53
	c-15.67,0-28.46-11.91-28.46-26.53C27.46,33.98,40.25,22.07,55.92,22.07"/>
<g>
	<defs>
		
			<rect id="SVGID_1_" x="18.6" y="9.94" transform="matrix(0.5105 -0.8599 0.8599 0.5105 -13.8325 71.5631)" width="74.67" height="75.98"/>
	</defs>
	<clipPath id="SVGID_2_">
		<use xlink:href="#SVGID_1_"  style="overflow:visible;"/>
	</clipPath>
</g>
<g>
	<defs>
		
			<rect id="SVGID_3_" x="18.6" y="9.94" transform="matrix(0.5105 -0.8599 0.8599 0.5105 -13.8325 71.5631)" width="74.67" height="75.98"/>
	</defs>
	<defs>
		
			<rect id="SVGID_4_" x="18.63" y="9.93" transform="matrix(0.5105 -0.8599 0.8599 0.5105 -13.8335 71.5928)" width="74.67" height="76.04"/>
	</defs>
	<clipPath id="SVGID_5_">
		<use xlink:href="#SVGID_3_"  style="overflow:visible;"/>
	</clipPath>
	<clipPath id="SVGID_6_" class="st1">
		<use xlink:href="#SVGID_4_"  style="overflow:visible;"/>
	</clipPath>
</g>
<g>
	<defs>
		
			<rect id="SVGID_7_" x="18.6" y="9.94" transform="matrix(0.5105 -0.8599 0.8599 0.5105 -13.8325 71.5631)" width="74.67" height="75.98"/>
	</defs>
	<defs>
		
			<rect id="SVGID_8_" x="18.63" y="9.93" transform="matrix(0.5105 -0.8599 0.8599 0.5105 -13.8335 71.5928)" width="74.67" height="76.04"/>
	</defs>
	<defs>
		<path id="SVGID_9_" d="M55.92,22.07c15.69,0,28.48,11.91,28.48,26.51c0,14.61-12.79,26.53-28.48,26.53
			c-15.67,0-28.46-11.91-28.46-26.53C27.46,33.98,40.25,22.07,55.92,22.07"/>
	</defs>
	<clipPath id="SVGID_10_">
		<use xlink:href="#SVGID_7_"  style="overflow:visible;"/>
	</clipPath>
	<clipPath id="SVGID_11_" class="st2">
		<use xlink:href="#SVGID_8_"  style="overflow:visible;"/>
	</clipPath>
	<clipPath id="SVGID_12_" class="st3">
		<use xlink:href="#SVGID_9_"  style="overflow:visible;"/>
	</clipPath>
	<g class="st4">
		<g>
			<defs>
				<rect id="SVGID_13_" x="27.3" y="21.97" width="57.12" height="53.28"/>
			</defs>
			<clipPath id="SVGID_14_">
				<use xlink:href="#SVGID_13_"  style="overflow:visible;"/>
			</clipPath>
		</g>
	</g>
</g>
<g>
	<defs>
		<polyline id="SVGID_15_" points="4.19,10.23 4.19,75.32 102.8,75.32 102.8,10.23 4.19,10.23 		"/>
	</defs>
	<clipPath id="SVGID_16_">
		<use xlink:href="#SVGID_15_"  style="overflow:visible;"/>
	</clipPath>
	<path class="st5" d="M55.92,22.07c15.69,0,28.48,11.91,28.48,26.51c0,14.61-12.79,26.53-28.48,26.53
		c-15.67,0-28.46-11.91-28.46-26.53C27.46,33.98,40.25,22.07,55.92,22.07z"/>
</g>
<path class="st6" d="M70.58,58.81c0.65,0.61,0.65,1.82,1.96,1.94c0.73,0.91,1.9-1.4,1.38-0.73c0.65,1.87,1.7,1.1,1.25,2.97
	c-1.18-0.96-1.5,0.56-2.81-2.01c-1.05,2.99,0.06-0.12-1.7-0.49C70.98,59.84,70.33,59.35,70.58,58.81L70.58,58.81z M61.18,70.91
	c-0.9-3.11,2.48-1.47,1.71-5.11c1.18-0.05,2.41-0.73,3.71-1.59c0.6-1.03,1.9-0.78,2.1-1.82c2.21-0.42,0.91,1.96,1.5,2.5
	c0.78,0.49,1.51-1.59,2.15-1.45c0.51,0.47,0.38,1.87,0.58,2.78c0.25,0.25,0.45,0.55,0.65,0.79c-0.98,2.31-2.03,4.27-3.66,4.81
	c-1.18,0.31-2.48,0.54-3.66,0.91c0-0.91-0.52-1.52-1.18-1.94C63.73,70.12,62.36,70,61.18,70.91z M75.35,57.95
	c-0.65,0.56-1.11,1.03-1.69,1.52c-0.4-0.12-0.85-0.19-1.31-0.24c-0.4-1.05-0.72-2.08-1.12-3.04c-0.78-0.3-1.76-0.98-1.96-4.2
	c-0.58,1.45-1.43,2.73-2.87,3.71c-0.2,1.1-0.34,2.13-1.32,3.41c-0.38,0.47-0.25,1.22-1.88-0.25c-0.2-1.63-0.32-3.34-0.45-5.04
	c-2.03,0.42-1.25-1.64-3.28-3.34c-0.98-1.05-1.96-2.08-2.94-3.17c-1.18-0.35-1.38,0.07-0.85,0.79c0.92,1.47,1.83,2.38,2.96,2.55
	c-0.2,0.49-0.4,0.86-0.67,1.1c-1.88-0.3-3.91-2.24-5.8-1.03c-0.4-0.42-0.8-0.91-1.18-1.33c-0.13,0.84,0.13,1.52,0.58,1.75
	c1.38,1.05,0.4,2.99,3.01,3.22c1.58,0.3,0.4,0.74,0.4,1.05c-1.7,1.52-7.52-0.31-8.75,1.45c-0.15,0.77-0.35,1.52-0.6,2.26
	c-0.91,0.78-1.31,1.45-1.76,2.24c-0.78,0.67-1.63,1.89-2.55,3.29c-4.84,1.27-3.33,2.55-5.02,2.36c-0.6-0.42-1.25-0.85-1.9-1.22
	c0.65-2.06-0.32-4.63-0.52-6.94c0.65,0.25,1.45,0.12,2.1-0.23c-0.4-2.01-1.18-3.17-0.6-5.53c-0.89-0.5-1.78-0.99-2.68-1.47
	c-2.66,2.43-1.83-3.46-1.69-4.44c1.69-1.52,3.26-4.13,4.96-4.62c2.34-0.42,4.64-0.84,6.92-1.33c1.18,0.24,2.54,0.96,4.11,2.31
	c0.06,2.24,2.54,3.34,3.72,4.93c0.4-0.44,0.85-0.86,1.18-1.28c0.85-0.24,1.63-0.54,2.48-0.79c0.65-0.35,0.65-1.03-0.13-2.01
	c-1.63,1.03-2.35-0.91-4.89-0.84c0.78-0.91,1.76-0.68,2.61-1.05c-0.45-1.57-1.7-2.48-3.91-2.78c-1.25-0.25-3.01,1.94-3.81-0.74
	c1.25-3.16,2.1-0.49,3.08-0.73c0.38-0.98,0.73-1.52,0.98-1.59c0.4-0.05,0.78-0.12,1.1-0.12c1.05,0.56,1.45-2.06,4.19-0.49
	c1.83,3.36,4.31,2.8,4.89,4.08c0.92-3.17,2.03-1.52,3.21-2.99c-1.9-1.4-1.63,0.72-3.86,0.3c-2.21,0.91-2.68-0.05-2.08-1.64
	c-1.1-0.56-0.98-1.52,1.05-2.01c5.15-0.12,8.93,0.68,9.78,3.9c-0.38,0.42-0.71,0.78-1.1,1.1c-1.38-0.13-0.45-0.98-1.9-1.59
	c0.2,0.84,0.27,1.82-0.38,2.55c2.81-0.91,7.32,1.58,11.63-4.25c1.1-0.37,2.73-0.12,3.32-1.1c0.32,2.92,3.6,2.38,3.08,5.42
	c0.71,1.52,1.55,0.79,2.21,3.16c0.14,3.36-1.23,1.28-0.78,6.51c-0.65,0.42-0.91,1.52-1.88,1.28c-0.98-2.62,3.31-0.13,0.05-10.95
	c-0.13,3.95-0.58,7.6-1.31,8.2c0.33,1.96,0.33,3.1,0.4,4.39c-0.53-0.61-0.93-1.94-1.58-1.77c0,0.93-0.13,1.77-0.85,2.01
	c-0.26-0.05-0.51-0.12-0.71-0.24c0.05,1.28-1.38,2.01-2.35,2.73C74.51,56.5,75.35,56.67,75.35,57.95L75.35,57.95z M28.73,41.89
	c1.25-0.71,2.01-1.75,2.66-3.27c1.9-0.07-2.81,3.88-1.5,5.89c1.57-1.1-0.51-2.78,3.08-5.16c-0.13-0.98-0.31-1.96-0.52-2.92
	c-2.03-1.33,1.32-2.73,1.92-4.44c0.05,0.86-0.04,1.1,0.16,1.94c0.73-0.61,1.51-1.22,2.28-1.89c0,0.61,0.07,1.16,0.15,1.65
	c5.87,0.12,5.35-0.07,8.75-0.07c-0.2-1.4-0.4-2.74-0.52-4.02c2.73-0.24,5.49-0.49,8.3-0.61c9.33-0.3,6.98-1.64,6.72-3.46
	c-3.53-2.23-6.72-1.06-15.93-1.13C38.06,26.82,30.49,33.7,28.73,41.89"/>
<path class="st7" d="M70.58,58.81c0.65,0.61,0.65,1.82,1.96,1.94c0.73,0.91,1.9-1.4,1.38-0.73c0.65,1.87,1.7,1.1,1.25,2.97
	c-1.18-0.96-1.5,0.56-2.81-2.01c-1.05,2.99,0.06-0.12-1.7-0.49C70.98,59.84,70.33,59.35,70.58,58.81L70.58,58.81z M61.18,70.91
	c-0.9-3.11,2.48-1.47,1.71-5.11c1.18-0.05,2.41-0.73,3.71-1.59c0.6-1.03,1.9-0.78,2.1-1.82c2.21-0.42,0.91,1.96,1.5,2.5
	c0.78,0.49,1.51-1.59,2.15-1.45c0.51,0.47,0.38,1.87,0.58,2.78c0.25,0.25,0.45,0.55,0.65,0.79c-0.98,2.31-2.03,4.27-3.66,4.81
	c-1.18,0.31-2.48,0.54-3.66,0.91c0-0.91-0.52-1.52-1.18-1.94C63.73,70.12,62.36,70,61.18,70.91z M75.35,57.95
	c-0.65,0.56-1.11,1.03-1.69,1.52c-0.4-0.12-0.85-0.19-1.31-0.24c-0.4-1.05-0.72-2.08-1.12-3.04c-0.78-0.3-1.76-0.98-1.96-4.2
	c-0.58,1.45-1.43,2.73-2.87,3.71c-0.2,1.1-0.34,2.13-1.32,3.41c-0.38,0.47-0.25,1.22-1.88-0.25c-0.2-1.63-0.32-3.34-0.45-5.04
	c-2.03,0.42-1.25-1.64-3.28-3.34c-0.98-1.05-1.96-2.08-2.94-3.17c-1.18-0.35-1.38,0.07-0.85,0.79c0.92,1.47,1.83,2.38,2.96,2.55
	c-0.2,0.49-0.4,0.86-0.67,1.1c-1.88-0.3-3.91-2.24-5.8-1.03c-0.4-0.42-0.8-0.91-1.18-1.33c-0.13,0.84,0.13,1.52,0.58,1.75
	c1.38,1.05,0.4,2.99,3.01,3.22c1.58,0.3,0.4,0.74,0.4,1.05c-1.7,1.52-7.52-0.31-8.75,1.45c-0.15,0.77-0.35,1.52-0.6,2.26
	c-0.91,0.78-1.31,1.45-1.76,2.24c-0.78,0.67-1.63,1.89-2.55,3.29c-4.84,1.27-3.33,2.55-5.02,2.36c-0.6-0.42-1.25-0.85-1.9-1.22
	c0.65-2.06-0.32-4.63-0.52-6.94c0.65,0.25,1.45,0.12,2.1-0.23c-0.4-2.01-1.18-3.17-0.6-5.53c-0.89-0.5-1.78-0.99-2.68-1.47
	c-2.66,2.43-1.83-3.46-1.69-4.44c1.69-1.52,3.26-4.13,4.96-4.62c2.34-0.42,4.64-0.84,6.92-1.33c1.18,0.24,2.54,0.96,4.11,2.31
	c0.06,2.24,2.54,3.34,3.72,4.93c0.4-0.44,0.85-0.86,1.18-1.28c0.85-0.24,1.63-0.54,2.48-0.79c0.65-0.35,0.65-1.03-0.13-2.01
	c-1.63,1.03-2.35-0.91-4.89-0.84c0.78-0.91,1.76-0.68,2.61-1.05c-0.45-1.57-1.7-2.48-3.91-2.78c-1.25-0.25-3.01,1.94-3.81-0.74
	c1.25-3.16,2.1-0.49,3.08-0.73c0.38-0.98,0.73-1.52,0.98-1.59c0.4-0.05,0.78-0.12,1.1-0.12c1.05,0.56,1.45-2.06,4.19-0.49
	c1.83,3.36,4.31,2.8,4.89,4.08c0.92-3.17,2.03-1.52,3.21-2.99c-1.9-1.4-1.63,0.72-3.86,0.3c-2.21,0.91-2.68-0.05-2.08-1.64
	c-1.1-0.56-0.98-1.52,1.05-2.01c5.15-0.12,8.93,0.68,9.78,3.9c-0.38,0.42-0.71,0.78-1.1,1.1c-1.38-0.13-0.45-0.98-1.9-1.59
	c0.2,0.84,0.27,1.82-0.38,2.55c2.81-0.91,7.32,1.58,11.63-4.25c1.1-0.37,2.73-0.12,3.32-1.1c0.32,2.92,3.6,2.38,3.08,5.42
	c0.71,1.52,1.55,0.79,2.21,3.16c0.14,3.36-1.23,1.28-0.78,6.51c-0.65,0.42-0.91,1.52-1.88,1.28c-0.98-2.62,3.31-0.13,0.05-10.95
	c-0.13,3.95-0.58,7.6-1.31,8.2c0.33,1.96,0.33,3.1,0.4,4.39c-0.53-0.61-0.93-1.94-1.58-1.77c0,0.93-0.13,1.77-0.85,2.01
	c-0.26-0.05-0.51-0.12-0.71-0.24c0.05,1.28-1.38,2.01-2.35,2.73C74.51,56.5,75.35,56.67,75.35,57.95L75.35,57.95z M28.73,41.89
	c1.25-0.71,2.01-1.75,2.66-3.27c1.9-0.07-2.81,3.88-1.5,5.89c1.57-1.1-0.51-2.78,3.08-5.16c-0.13-0.98-0.31-1.96-0.52-2.92
	c-2.03-1.33,1.32-2.73,1.92-4.44c0.05,0.86-0.04,1.1,0.16,1.94c0.73-0.61,1.51-1.22,2.28-1.89c0,0.61,0.07,1.16,0.15,1.65
	c5.87,0.12,5.35-0.07,8.75-0.07c-0.2-1.4-0.4-2.74-0.52-4.02c2.73-0.24,5.49-0.49,8.3-0.61c9.33-0.3,6.98-1.64,6.72-3.46
	c-3.53-2.23-6.72-1.06-15.93-1.13C38.06,26.82,30.49,33.7,28.73,41.89L28.73,41.89z"/>
<path class="st8" d="M68.22,24.45L43.05,72.12 M33.45,35.87c-5.82,11.62,0.6,25.9,13.55,31.57c12.95,5.67,28.3,0.45,34.18-11.25
	c5.89-11.7-0.21-25.85-13.11-31.57C55.17,18.91,39.27,24.26,33.45,35.87z M58.04,29.9c-1.3,2.58,0.25,6.02,3.65,7.45
	c3.32,1.49,6.95,0.56,8.36-2.2c1.34-2.73-0.35-5.84-3.68-7.33C63.07,26.21,59.28,27.21,58.04,29.9z M48.18,29.54
	c-3.09,6.09,0.68,13.83,8.54,17.14c7.68,3.46,16.29,1.26,19.66-5.12c2.96-6.17-0.85-13.69-8.61-17.12
	C60.1,20.89,51.25,23.26,48.18,29.54L48.18,29.54z M40.22,32.53c-4.52,9.18,0.42,20.22,11.2,24.79c10.48,4.71,22.69,1.17,27.59-8.23
	c4.38-9.07-0.62-20.04-11.28-24.63C57.27,19.69,44.72,23.44,40.22,32.53L40.22,32.53z M31.07,61.49
	c-3.41-5.53,4.92-16.19,18.31-23.57c13.39-7.38,27.21-8.99,30.63-3.46 M59.06,74.94c6.79-0.79,10.96-13.39,9.23-27.79
	c-1.73-14.4-8.69-25.71-15.48-24.92 M80.06,62.64c6.09-9.63-2.04-24.2-16.03-30.54c-13.99-6.34-30.24-3.01-34.82,7.26"/>
<path class="st9" d="M56.58,17.09h39.73c3.51,0,6.38,2.67,6.38,5.94v27.46c0,3.27-2.87,5.94-6.38,5.94H56.58
	c-3.51,0-6.38-2.67-6.38-5.94V23.03C50.2,19.76,53.07,17.09,56.58,17.09L56.58,17.09z M55.59,19.66H97.3c1.55,0,2.82,1.08,2.82,2.41
	v29.38c0,1.32-1.27,2.41-2.82,2.41H55.59c-1.55,0-2.82-1.08-2.82-2.41V22.07C52.77,20.74,54.04,19.66,55.59,19.66"/>
<g>
	<defs>
		<polyline id="SVGID_17_" points="4.19,10.23 4.19,75.32 102.8,75.32 102.8,10.23 4.19,10.23 		"/>
	</defs>
	<clipPath id="SVGID_18_">
		<use xlink:href="#SVGID_17_"  style="overflow:visible;"/>
	</clipPath>
	<path class="st10" d="M56.58,17.09h39.73c3.51,0,6.38,2.67,6.38,5.94v27.46c0,3.27-2.87,5.94-6.38,5.94H56.58
		c-3.51,0-6.38-2.67-6.38-5.94V23.03C50.2,19.76,53.07,17.09,56.58,17.09L56.58,17.09z M55.59,19.66H97.3
		c1.55,0,2.82,1.08,2.82,2.41v29.38c0,1.32-1.27,2.41-2.82,2.41H55.59c-1.55,0-2.82-1.08-2.82-2.41V22.07
		C52.77,20.74,54.04,19.66,55.59,19.66z"/>
</g>
<path class="st9" d="M20.99,26.82c0.29,0.26,0.91,0.3,2.06,0.67c-8.02,0.7-8.14,7.15-10.72,13.24c6.69-0.83,18.62-9.01,11.79-12.98
	c2.13,0.27,5.15,1.04,7.96,1.49c-7.98,0.9-6.12,8.11-9.03,13.89c8.14-1.43,16.27-10.06,10.48-13.51c2.74,0.59,5.56,1.2,8.38,1.87
	c-9.27,0.67-7.81,7.42-10.15,13.88c7.57-2.48,15.55-6.97,11.92-13.13c3.3,0.82,6.37,1.94,9.26,3c-10.63-0.38-9.58,7.42-12.73,16.73
	c7.83-4.13,17-7.27,14.35-15.75c3.06,1.57,4.92,3.53,6.36,6.22C49.16,41.1,49.64,53.04,47.06,61.07
	c10.72-6.23,16.93-9.45,15.23-17.03c1.29,2.77,2.18,6.15,3.15,9.82h3.7c-2.01-6.46-4.18-12.31-7.48-15.91
	c11.03,0,9.26-15.14,4.84-20.63c-0.66,3.97-13.61,11.47-6.21,19.36c-2.41-1.81-4.03-2.63-7.24-3.91c8.62-2.47,5.4-15.45,3.21-18.6
	c-5.31,6.91-11.75,10.96-4.9,17.79c-2.51-0.9-4.59-1.65-6.78-2.26c5.88-1.49,3.39-11.25-2.25-17.63
	c-1.21,7.21-5.95,12.39,0.89,17.34c-2.1-0.45-4.83-1.14-6.93-1.59c6.93-1.79,2.73-11.55-4.11-16.5c-0.07,5.79-2.74,12.53,3.15,16.44
	c-2.19-0.38-5.31-1.14-7.66-1.43c6.28-2.48,2.41-11.18-6.21-15.99c-0.15,4.14-2.56,13.96,4.35,15.61c-1.62-0.05-2.75-0.27-4.02-0.74
	c0.72-2.69-2.51-7.31-17.48-6.4C9.94,26.7,18.03,30.91,20.99,26.82L20.99,26.82z M50.77,55.89c1.53-2.79,1.86-12.24,8.77-10.88
	C61.49,51.53,53.11,53.71,50.77,55.89z M66.72,22.72c2.1,4.95-0.72,14.33-4.35,12.9C57.78,28.65,65.83,25.41,66.72,22.72z
	 M44.01,47.4c1.36-3.75,0.73-9.68,8.12-9.9C53.99,42.9,47.38,45.6,44.01,47.4z M55.61,18.59c1.53,6.31,0.48,11.33-3.3,11.55
	C48.43,24.82,54.23,22.33,55.61,18.59z M34.65,42.3c1.38-3.75,1.46-9.09,7.42-8.78C44.56,37.66,38.04,40.51,34.65,42.3z M43.03,17.1
	c3.71,4.65,2.99,8.17,1.13,10.27C39.42,23.76,42.63,21.15,43.03,17.1z M26.36,39.9c1.45-3.14,1.14-8.93,6.28-8.11
	C35.3,33.68,29.66,38.92,26.36,39.9z M33.78,15.96c4.35,4.05,4.35,8.04,2.34,9.61C31.68,22.19,34.25,18.75,33.78,15.96z
	 M23.38,14.55c5.8,3.81,5.88,9.15,3.39,9.6C22.42,23.54,23.29,18.59,23.38,14.55z M8.48,20.54c8.45,0.3,12.32,2.48,10.79,5.11
	C16.53,28.35,11.62,23.31,8.48,20.54z M15.64,37.72c2.19-5.24,2.58-8.12,6.94-7.9C25.76,32.58,20.4,36.52,15.64,37.72"/>
<g>
	<defs>
		<polyline id="SVGID_19_" points="4.19,10.23 4.19,75.32 102.8,75.32 102.8,10.23 4.19,10.23 		"/>
	</defs>
	<clipPath id="SVGID_20_">
		<use xlink:href="#SVGID_19_"  style="overflow:visible;"/>
	</clipPath>
	<path class="st11" d="M20.99,26.82c0.29,0.26,0.91,0.3,2.06,0.67c-8.02,0.7-8.14,7.15-10.72,13.24
		c6.69-0.83,18.62-9.01,11.79-12.98c2.13,0.27,5.15,1.04,7.96,1.49c-7.98,0.9-6.12,8.11-9.03,13.89
		c8.14-1.43,16.27-10.06,10.48-13.51c2.74,0.59,5.56,1.2,8.38,1.87c-9.27,0.67-7.81,7.42-10.15,13.88
		c7.57-2.48,15.55-6.97,11.92-13.13c3.3,0.82,6.37,1.94,9.26,3c-10.63-0.38-9.58,7.42-12.73,16.73c7.83-4.13,17-7.27,14.35-15.75
		c3.06,1.57,4.92,3.53,6.36,6.22C49.16,41.1,49.64,53.04,47.06,61.07c10.72-6.23,16.93-9.45,15.23-17.03
		c1.29,2.77,2.18,6.15,3.15,9.82h3.7c-2.01-6.46-4.18-12.31-7.48-15.91c11.03,0,9.26-15.14,4.84-20.63
		c-0.66,3.97-13.61,11.47-6.21,19.36c-2.41-1.81-4.03-2.63-7.24-3.91c8.62-2.47,5.4-15.45,3.21-18.6
		c-5.31,6.91-11.75,10.96-4.9,17.79c-2.51-0.9-4.59-1.65-6.78-2.26c5.88-1.49,3.39-11.25-2.25-17.63
		c-1.21,7.21-5.95,12.39,0.89,17.34c-2.1-0.45-4.83-1.14-6.93-1.59c6.93-1.79,2.73-11.55-4.11-16.5
		c-0.07,5.79-2.74,12.53,3.15,16.44c-2.19-0.38-5.31-1.14-7.66-1.43c6.28-2.48,2.41-11.18-6.21-15.99
		c-0.15,4.14-2.56,13.96,4.35,15.61c-1.62-0.05-2.75-0.27-4.02-0.74c0.72-2.69-2.51-7.31-17.48-6.4
		C9.94,26.7,18.03,30.91,20.99,26.82L20.99,26.82z M50.77,55.89c1.53-2.79,1.86-12.24,8.77-10.88
		C61.49,51.53,53.11,53.71,50.77,55.89z M66.72,22.72c2.1,4.95-0.72,14.33-4.35,12.9C57.78,28.65,65.83,25.41,66.72,22.72z
		 M44.01,47.4c1.36-3.75,0.73-9.68,8.12-9.9C53.99,42.9,47.38,45.6,44.01,47.4z M55.61,18.59c1.53,6.31,0.48,11.33-3.3,11.55
		C48.43,24.82,54.23,22.33,55.61,18.59z M34.65,42.3c1.38-3.75,1.46-9.09,7.42-8.78C44.56,37.66,38.04,40.51,34.65,42.3z
		 M43.03,17.1c3.71,4.65,2.99,8.17,1.13,10.27C39.42,23.76,42.63,21.15,43.03,17.1z M26.36,39.9c1.45-3.14,1.14-8.93,6.28-8.11
		C35.3,33.68,29.66,38.92,26.36,39.9z M33.78,15.96c4.35,4.05,4.35,8.04,2.34,9.61C31.68,22.19,34.25,18.75,33.78,15.96z
		 M23.38,14.55c5.8,3.81,5.88,9.15,3.39,9.6C22.42,23.54,23.29,18.59,23.38,14.55z M8.48,20.54c8.45,0.3,12.32,2.48,10.79,5.11
		C16.53,28.35,11.62,23.31,8.48,20.54z M15.64,37.72c2.19-5.24,2.58-8.12,6.94-7.9C25.76,32.58,20.4,36.52,15.64,37.72z"/>
</g>
<path class="st12" d="M81.71,21.85v8.67h-1.69v-8.67H81.71z M85.37,21.85v8.67h-1.69v-8.67H85.37z M90.08,23.31v7.22h-1.69v-7.22
	h-1.95v-1.46h5.59v1.46H90.08z M97.91,23.31h-3.12v1.94h2.99v1.46h-2.99v2.37h3.12v1.46H93.1v-8.67h4.81L97.91,23.31L97.91,23.31z"
	/>
</svg>
