<?xml version="1.0" standalone="no"?>
<!DOCTYPE svg PUBLIC "-//W3C//DTD SVG 20010904//EN"
 "http://www.w3.org/TR/2001/REC-SVG-20010904/DTD/svg10.dtd">
<svg version="1.0" xmlns="http://www.w3.org/2000/svg"
 width="1280.000000pt" height="954.000000pt" viewBox="0 0 1280.000000 954.000000"
 preserveAspectRatio="xMidYMid meet">
<metadata>
Created by potrace 1.15, written by Peter Selinger 2001-2017
</metadata>
<g transform="translate(0.000000,954.000000) scale(0.100000,-0.100000)"
fill="#000000" stroke="none">
<path d="M3845 8785 c-1397 -410 -2553 -749 -2570 -753 l-30 -8 -3 -202 c-1
-111 0 -202 2 -202 3 0 551 156 1218 346 2958 843 3879 1104 3891 1104 10 0
5187 -1406 5249 -1426 17 -5 18 5 18 198 l0 203 -2597 739 c-1429 407 -2607
741 -2618 742 -11 2 -1163 -332 -2560 -741z"/>
<path d="M5795 8600 c-483 -139 -3073 -885 -3343 -962 -19 -5 -32 -12 -29 -14
3 -3 254 0 558 7 l554 12 1453 383 1454 382 1454 -394 1455 -394 542 2 542 3
-85 27 c-101 32 -3853 1124 -3890 1133 -8 1 -307 -82 -665 -185z"/>
<path d="M1260 7020 l0 -190 5190 0 5190 0 0 190 0 190 -5190 0 -5190 0 0
-190z"/>
<path d="M8854 6639 c-50 -14 -126 -70 -156 -114 -63 -93 -59 40 -56 -2160 l3
-2000 25 -50 c54 -110 143 -166 275 -173 148 -8 237 38 295 152 l35 69 3 628
3 629 -106 0 -105 0 0 -615 0 -616 -25 -24 c-19 -20 -34 -25 -75 -25 -44 0
-56 5 -81 29 l-29 29 0 1992 c0 1495 3 1997 12 2013 19 36 40 46 96 47 43 0
57 -5 77 -25 l25 -24 0 -551 0 -550 105 0 106 0 -3 564 -3 563 -35 69 c-38 74
-95 123 -168 144 -45 12 -175 12 -218 -1z"/>
<path d="M10590 6633 c-98 -34 -174 -108 -205 -202 -14 -42 -15 -255 -13
-2056 3 -1943 4 -2011 22 -2045 38 -72 86 -119 154 -152 63 -31 73 -33 172
-33 95 0 111 3 162 28 61 30 105 74 140 140 l23 42 3 2022 2 2022 -21 57 c-29
77 -96 144 -172 173 -71 26 -199 28 -267 4z m213 -203 c15 -12 31 -38 37 -58
6 -25 10 -681 10 -1987 0 -1837 -1 -1952 -18 -1985 -21 -42 -53 -60 -110 -60
-55 0 -97 22 -119 63 -17 30 -18 137 -18 1992 0 1845 1 1962 17 1992 27 48 55
63 119 63 42 0 63 -5 82 -20z"/>
<path d="M7137 6609 c-57 -13 -89 -33 -136 -84 -96 -105 -106 -167 -97 -625 3
-195 11 -405 16 -466 14 -180 109 -610 267 -1213 165 -632 167 -649 157 -1326
-7 -471 -8 -477 -59 -511 -21 -14 -30 -14 -56 -4 -65 27 -64 14 -67 648 l-3
572 -119 0 -120 0 0 -584 c0 -553 1 -587 20 -648 25 -81 73 -138 142 -168 44
-20 70 -24 148 -24 163 1 260 56 322 182 l33 67 3 545 c4 727 -2 782 -143
1288 -275 994 -280 1024 -280 1667 0 379 1 413 18 438 41 63 114 55 141 -14
14 -34 16 -108 16 -539 l0 -500 121 0 120 0 -4 508 c-4 586 -7 610 -80 689
-23 25 -59 55 -81 68 -71 41 -190 55 -279 34z"/>
<path d="M1890 4588 c0 -1165 4 -2043 10 -2099 12 -121 39 -195 91 -249 53
-55 117 -82 205 -88 147 -9 254 55 305 183 l24 60 3 2098 2 2097 -95 0 -95 0
0 -2042 c0 -1967 -1 -2045 -19 -2084 -23 -50 -64 -84 -102 -84 -37 0 -86 43
-99 88 -6 25 -10 717 -10 2080 l0 2042 -110 0 -110 0 0 -2002z"/>
<path d="M3610 4380 l0 -2210 85 0 85 0 2 1293 3 1292 139 -1270 c76 -698 140
-1280 143 -1292 5 -22 10 -23 104 -23 l99 0 0 2210 0 2210 -70 0 -70 0 -2
-1222 -3 -1223 -145 1220 -145 1220 -113 3 -112 3 0 -2211z"/>
<path d="M5310 4380 l0 -2210 305 0 305 0 0 100 0 100 -165 0 -165 0 0 1035 0
1035 145 0 145 0 0 85 0 85 -145 0 -145 0 0 890 0 890 145 0 145 0 0 100 0
100 -285 0 -285 0 0 -2210z"/>
<path d="M1260 1670 l0 -190 5190 0 5190 0 0 190 0 190 -5190 0 -5190 0 0
-190z"/>
<path d="M590 925 l0 -185 5810 0 5810 0 0 185 0 185 -5810 0 -5810 0 0 -185z"/>
<path d="M10 200 l0 -190 6390 0 6390 0 0 190 0 190 -6390 0 -6390 0 0 -190z"/>
</g>
</svg>
